<?xml version="1.0" encoding="UTF-8" standalone="no"?><!DOCTYPE svg PUBLIC "-//W3C//DTD SVG 1.1//EN" "http://www.w3.org/Graphics/SVG/1.1/DTD/svg11.dtd"><svg width="100%" height="100%" viewBox="0 0 128 128" version="1.1" xmlns="http://www.w3.org/2000/svg" xmlns:xlink="http://www.w3.org/1999/xlink" xml:space="preserve" xmlns:serif="http://www.serif.com/" style="fill-rule:evenodd;clip-rule:evenodd;stroke-linecap:round;stroke-linejoin:round;stroke-miterlimit:1.5;"><rect id="Artboard1" x="0" y="0" width="128" height="128" style="fill:none;"/><clipPath id="_clip1"><rect x="0" y="0" width="128" height="128"/></clipPath><g clip-path="url(#_clip1)"><g id="alien-invader" serif:id="alien invader"><g id="Canopy"><path d="M85.016,80.264l-42.207,0.591c0,0 -32.315,-72.955 12.691,-80.284c51.914,-8.453 29.516,79.693 29.516,79.693Zm-1.475,0l-39.552,0.295c0,0 -31.841,-70.446 11.807,-78.217c49.979,-8.898 27.745,77.922 27.745,77.922Z" style="fill:#fff;"/><path d="M85.016,80.264l-42.207,0.591c0,0 -32.315,-72.955 12.691,-80.284c51.914,-8.453 29.516,79.693 29.516,79.693Z" style="fill:url(#_Radial2);"/></g><g id="Pilot"><g id="head"><path id="head1" serif:id="head" d="M79.203,71.608c0,-8.831 -7.17,-16 -16,-16c-8.831,0 -16,7.169 -16,16l0,3.171l32,0l0,-3.171Z" style="fill:#ffd800;"/><g id="eyes"><path id="Eyes" d="M67.7,63.718c1.273,0 2.308,1.906 2.308,4.253c0,2.347 -1.035,4.253 -2.308,4.253c-1.274,0 -2.308,-1.906 -2.308,-4.253c0,-2.347 1.034,-4.253 2.308,-4.253Zm6.035,-0.161c1.273,0 2.307,1.906 2.307,4.253c0,2.348 -1.034,4.253 -2.307,4.253c-1.274,0 -2.308,-1.905 -2.308,-4.253c0,-2.347 1.034,-4.253 2.308,-4.253Z" style="fill:#236b0c;"/></g></g><g id="suit"><path id="body" d="M79.239,73.68l-32,0l0,10.928c0,8.83 7.17,16 16,16c8.831,0 16,-7.17 16,-16l0,-10.928Z" style="fill:#359318;"/><path id="body1" serif:id="body" d="M79.203,74.779l-31.964,-1.099l0,10.928c0,8.83 7.17,16 16,16c4.932,0 9.346,-2.237 12.282,-5.75c1.143,-1.367 -7.888,3.737 -14.543,1.597c-6.276,-2.018 -9.514,-7.28 -10.094,-18.763c-0.028,-0.565 28.334,0.275 28.319,-0.321c-0.02,-0.733 0,-1.811 0,-2.592Z" style="fill:#286a14;"/><path d="M74.72,79.436l1.73,4.504l-3.459,0l1.729,-4.504Z" style="fill:#286a14;"/><path d="M62.721,77.591l0,11.912l9.125,0l-1.073,7.885" style="fill:none;stroke:#286a14;stroke-width:0.6px;"/><ellipse cx="74.517" cy="81.341" rx="1.526" ry="2.179" style="fill:#e8ff44;"/><ellipse cx="72.575" cy="79.506" rx="0.728" ry="0.93" style="fill:#e8ff44;"/><rect x="46.239" y="70.502" width="34" height="6" style="fill:#b8e01a;"/><path d="M59.328,70.502l0,3.178l13.975,0l0,-2.178" style="fill:none;stroke:#e8ff44;stroke-width:0.6px;stroke-linecap:butt;"/><path d="M55.506,75.214l-3.577,-2.747l-5.69,-1.965l0,6l34,0l0,-1.288l-24.733,0Z" style="fill:#62bc17;"/><rect x="46.239" y="70.502" width="34" height="1" style="fill:#e8ff44;"/></g></g><g id="Ship"><g id="detail"><path d="M122.154,91.101c0.641,0.34 2.574,1.85 2.419,2.239c-0.064,0.161 -0.239,0.521 -0.306,0.649c-0.512,0.974 -2.091,0.886 -3.661,0.061c-1.57,-0.824 -2.54,-2.073 -2.028,-3.048c0.072,-0.137 0.258,-0.511 0.386,-0.65c0.458,-0.501 2.557,0.412 3.19,0.749Z" style="fill:#6f2084;"/><path d="M122.154,91.101c0.641,0.34 2.61,1.866 2.419,2.239c-0.866,1.691 -4.099,0.082 -3.625,-0.454c0.339,-0.383 -1.675,-1.281 -1.527,-1.441c1.293,-1.413 -0.585,-0.954 -0.457,-1.093c0.458,-0.501 2.557,0.412 3.19,0.749Z" style="fill:#ca00ff;"/><path d="M123.039,89.415c2.033,1.067 1.417,3.053 0.985,4.011c-0.279,0.62 -1.638,0.484 -2.976,-0.218c-1.337,-0.702 -2.126,-1.825 -1.87,-2.326c0.479,-0.935 1.892,-2.5 3.861,-1.467Z" style="fill:#980065;"/><path d="M123.039,89.415c2.034,1.066 1.528,3.112 0.985,4.011c-0.188,0.312 -1.411,0.05 -2.755,-0.64c-0.859,-0.441 -0.962,-1.482 -0.705,-1.983c0.478,-0.935 1.689,-1.8 2.475,-1.388Z" style="fill:#ff4e00;"/></g><g id="detail1" serif:id="detail"><path d="M9.881,92.95c0.779,-0.381 3.595,-1.189 3.862,-0.767c0.111,0.176 0.336,0.598 0.412,0.752c0.583,1.179 -0.611,2.643 -2.51,3.582c-1.899,0.939 -3.787,1 -4.37,-0.179c-0.082,-0.166 -0.313,-0.608 -0.358,-0.83c-0.162,-0.795 2.194,-2.182 2.964,-2.558Z" style="fill:#6f2084;"/><path d="M9.881,92.95c0.779,-0.381 3.636,-1.213 3.862,-0.767c1.027,2.025 -2.798,4.02 -2.983,3.186c-0.132,-0.596 -2.414,0.72 -2.466,0.465c-0.457,-2.242 -1.332,-0.104 -1.377,-0.326c-0.162,-0.795 2.194,-2.182 2.964,-2.558Z" style="fill:#ca00ff;"/><path d="M8.873,90.911c2.458,-1.217 3.945,0.774 4.569,1.863c0.403,0.705 -0.683,1.924 -2.301,2.724c-1.617,0.8 -3.257,0.775 -3.561,0.175c-0.568,-1.119 -1.088,-3.584 1.293,-4.762Z" style="fill:#980065;"/><path d="M8.873,90.911c2.458,-1.218 4.081,0.707 4.569,1.863c0.169,0.401 -0.943,1.399 -2.553,2.214c-1.03,0.522 -2.109,-0.11 -2.413,-0.71c-0.567,-1.119 -0.554,-2.896 0.397,-3.367Z" style="fill:#ff4e00;"/></g><g id="engine-or-pooper" serif:id="engine or pooper"><path d="M82.004,112.278l-30.492,1.272l8.071,12.936l13.34,1.514l9.081,-15.722Z" style="fill:#d94200;"/><path d="M82.004,112.278l-23.584,2.376l2.505,10.417l11.756,1.853l9.323,-14.646Z" style="fill:#ff4e00;"/><path d="M83.894,112.737l-34.842,0l4.993,9.175l26.416,-1.955l3.433,-7.22Z" style="fill:#a40c0c;"/><path d="M83.894,112.737l-33.322,-0.074l7.263,7.916l22.626,-0.622l3.433,-7.22Z" style="fill:#b80808;"/></g><g id="ship-main-body" serif:id="ship main body"><path d="M41.628,80.559l43.684,-1.18c15.8,2.805 29.143,8.413 41.322,15.348c-14.876,11.676 -23.494,16.302 -44.274,20.366l-32.172,0.59c-16.984,-1.983 -32.636,-7.411 -46.636,-17.119c11.705,-7.983 24.171,-14.437 38.076,-18.005Z" style="fill:#5700a6;"/><path d="M11.932,101.1c19.47,1.057 93.576,1.105 111.158,-4.801c-15.21,10.509 -27.008,15.357 -41.324,17.267l-31.711,0.976c-9.316,-1.611 -31.025,-8.069 -38.123,-13.442Z" style="fill:#8452fe;"/><clipPath id="_clip3"><path d="M11.932,101.1c19.47,1.057 93.576,1.105 111.158,-4.801c-15.21,10.509 -27.008,15.357 -41.324,17.267l-31.711,0.976c-9.316,-1.611 -31.025,-8.069 -38.123,-13.442Z"/></clipPath><g clip-path="url(#_clip3)"><path d="M90.671,100.85c-1.129,3.5 -2.839,6.274 -6.267,8.961c-5.781,0.831 -12.149,1.369 -17.901,1.122l-0.563,-9.55" style="fill:none;stroke:#9b7aed;stroke-width:2px;stroke-miterlimit:1.41421;"/><path d="M53.791,116.248c-13.001,-4.617 -18.897,-8.856 -25.748,-16.205l32.181,0.671l4.374,14.567" style="fill:#c59bff;"/></g><path d="M41.628,80.559l43.684,-1.18c15.8,2.805 29.143,8.413 41.322,15.348c-15.291,6.089 -109.504,7.863 -123.082,3.837c11.705,-7.983 24.171,-14.437 38.076,-18.005Z" style="fill:#94007b;"/><path d="M41.333,81.15l44.274,-1.181c15.8,2.806 27.077,7.232 39.256,14.168c-15.291,6.089 -101.137,6.231 -115.824,4.441c10.951,-8.697 23.486,-15.357 32.294,-17.428Z" style="fill:#c59bff;"/><clipPath id="_clip4"><path d="M41.333,81.15l44.274,-1.181c15.8,2.806 27.077,7.232 39.256,14.168c-15.291,6.089 -101.137,6.231 -115.824,4.441c10.951,-8.697 23.486,-15.357 32.294,-17.428Z"/></clipPath><g clip-path="url(#_clip4)"><path d="M64.572,79.381l19.388,0.408c12.106,7.387 18.181,12.236 22.48,18.58l-37.416,1.21" style="fill:#e0caff;"/><path d="M44.288,80.132c-3.293,3.129 -5.773,6.445 -7.578,9.916c6.549,0.443 14.184,0.807 23.77,0.297l1.405,-5.571c4.62,0.179 9.014,-0.125 13.195,-0.881c-0.412,-1.975 -0.845,-3.993 -1.465,-5.958" style="fill:none;stroke:#9566d6;stroke-width:2px;stroke-miterlimit:1.41421;"/></g></g><g id="detail-grp" serif:id="detail grp"><g id="detail2" serif:id="detail"><path d="M17.765,94.352c0.824,-0.363 3.778,-1.085 4.038,-0.635c0.108,0.187 0.324,0.633 0.397,0.797c0.556,1.247 -0.744,2.717 -2.752,3.612c-2.009,0.896 -3.971,0.88 -4.527,-0.367c-0.078,-0.175 -0.299,-0.644 -0.336,-0.875c-0.136,-0.831 2.365,-2.173 3.18,-2.532Z" style="fill:#6f2084;"/><path d="M17.765,94.352c0.824,-0.363 3.822,-1.107 4.038,-0.635c0.982,2.143 -3.069,4.054 -3.226,3.182c-0.113,-0.625 -2.534,0.647 -2.578,0.38c-0.381,-2.345 -1.377,-0.164 -1.414,-0.395c-0.136,-0.831 2.365,-2.173 3.18,-2.532Z" style="fill:#ca00ff;"/><path d="M16.803,92.196c2.601,-1.161 4.061,0.966 4.663,2.122c0.389,0.748 -0.788,1.967 -2.499,2.73c-1.711,0.763 -3.411,0.669 -3.701,0.035c-0.543,-1.185 -0.981,-3.763 1.537,-4.887Z" style="fill:#980065;"/><path d="M16.803,92.196c2.6,-1.162 4.204,0.902 4.663,2.122c0.159,0.422 -1.036,1.412 -2.74,2.191c-1.09,0.498 -2.183,-0.202 -2.473,-0.836c-0.543,-1.185 -0.456,-3.028 0.55,-3.477Z" style="fill:#ff4e00;"/></g><g id="detail3" serif:id="detail"><path d="M37.634,95.032c0.888,-0.149 3.93,-0.123 4.071,0.377c0.058,0.207 0.158,0.693 0.188,0.869c0.233,1.346 -1.388,2.451 -3.555,2.826c-2.168,0.374 -4.065,-0.124 -4.298,-1.469c-0.032,-0.189 -0.131,-0.698 -0.111,-0.931c0.074,-0.839 2.828,-1.525 3.705,-1.672Z" style="fill:#6f2084;"/><path d="M37.634,95.032c0.888,-0.149 3.977,-0.134 4.071,0.377c0.425,2.318 -3.972,3.175 -3.91,2.291c0.045,-0.633 -2.615,0.004 -2.591,-0.266c0.206,-2.367 -1.295,-0.497 -1.275,-0.73c0.074,-0.839 2.828,-1.525 3.705,-1.672Z" style="fill:#ca00ff;"/><path d="M37.232,92.705c2.806,-0.486 3.699,1.935 3.998,3.203c0.193,0.821 -1.247,1.713 -3.093,2.032c-1.846,0.319 -3.471,-0.19 -3.596,-0.876c-0.235,-1.282 -0.026,-3.889 2.691,-4.359Z" style="fill:#980065;"/><path d="M37.232,92.705c2.806,-0.487 3.854,1.908 3.998,3.203c0.05,0.448 -1.351,1.114 -3.194,1.45c-1.179,0.215 -2.066,-0.732 -2.192,-1.418c-0.235,-1.282 0.303,-3.047 1.388,-3.235Z" style="fill:#ff4e00;"/></g><g id="detail4" serif:id="detail"><path d="M57.444,95.151c0.901,0.004 3.893,0.548 3.947,1.064c0.023,0.215 0.038,0.71 0.038,0.889c0,1.366 -1.785,2.179 -3.985,2.179c-2.199,0 -3.984,-0.813 -3.984,-2.179c0,-0.192 -0.011,-0.71 0.049,-0.936c0.215,-0.814 3.046,-1.022 3.935,-1.017Z" style="fill:#6f2084;"/><path d="M57.444,95.151c0.901,0.004 3.942,0.545 3.947,1.064c0.024,2.357 -4.454,2.453 -4.242,1.592c0.152,-0.616 -2.578,-0.441 -2.509,-0.703c0.607,-2.297 -1.191,-0.71 -1.131,-0.936c0.215,-0.814 3.046,-1.022 3.935,-1.017Z" style="fill:#ca00ff;"/><path d="M57.444,92.789c2.848,0 3.316,2.537 3.395,3.837c0.05,0.842 -1.521,1.476 -3.395,1.476c-1.873,0 -3.387,-0.778 -3.394,-1.476c-0.013,-1.303 0.637,-3.836 3.394,-3.837Z" style="fill:#980065;"/><path d="M57.444,92.789c2.848,-0.002 3.473,2.537 3.395,3.837c-0.027,0.451 -1.521,0.868 -3.395,0.886c-1.198,0.011 -1.911,-1.073 -1.918,-1.771c-0.013,-1.303 0.817,-2.951 1.918,-2.952Z" style="fill:#ff4e00;"/></g><g id="detail5" serif:id="detail"><path d="M77.162,94.797c0.898,0.063 3.849,0.803 3.869,1.321c0.008,0.216 -0.01,0.712 -0.021,0.89c-0.09,1.363 -1.925,2.057 -4.12,1.912c-2.194,-0.145 -3.922,-1.074 -3.832,-2.436c0.012,-0.192 0.036,-0.709 0.11,-0.932c0.269,-0.798 3.107,-0.818 3.994,-0.755Z" style="fill:#6f2084;"/><path d="M77.162,94.797c0.898,0.063 3.897,0.803 3.869,1.321c-0.131,2.354 -4.606,2.155 -4.338,1.31c0.192,-0.605 -2.543,-0.61 -2.457,-0.867c0.756,-2.252 -1.142,-0.786 -1.068,-1.009c0.269,-0.798 3.107,-0.818 3.994,-0.755Z" style="fill:#ca00ff;"/><path d="M77.318,92.44c2.841,0.187 3.141,2.749 3.134,4.053c-0.005,0.843 -1.615,1.372 -3.484,1.249c-1.869,-0.124 -3.329,-1 -3.29,-1.696c0.073,-1.301 0.888,-3.786 3.64,-3.606Z" style="fill:#980065;"/><path d="M77.318,92.44c2.842,0.186 3.297,2.76 3.134,4.053c-0.057,0.447 -1.575,0.766 -3.445,0.66c-1.197,-0.068 -1.837,-1.197 -1.798,-1.894c0.073,-1.301 1.009,-2.89 2.109,-2.819Z" style="fill:#ff4e00;"/></g><g id="detail6" serif:id="detail"><path d="M96.919,93.875c0.886,0.162 3.736,1.225 3.698,1.742c-0.015,0.216 -0.088,0.706 -0.119,0.882c-0.24,1.344 -2.141,1.831 -4.306,1.444c-2.165,-0.387 -3.779,-1.502 -3.539,-2.846c0.034,-0.189 0.114,-0.701 0.213,-0.913c0.355,-0.764 3.178,-0.47 4.053,-0.309Z" style="fill:#6f2084;"/><path d="M96.919,93.875c0.886,0.162 3.784,1.23 3.698,1.742c-0.391,2.324 -4.816,1.631 -4.456,0.821c0.258,-0.58 -2.46,-0.888 -2.346,-1.133c1.001,-2.155 -1.048,-0.909 -0.949,-1.121c0.355,-0.764 3.178,-0.47 4.053,-0.309Z" style="fill:#ca00ff;"/><path d="M97.335,91.55c2.803,0.501 2.818,3.081 2.666,4.375c-0.098,0.837 -1.757,1.185 -3.601,0.855c-1.844,-0.329 -3.198,-1.362 -3.082,-2.05c0.217,-1.285 1.302,-3.664 4.017,-3.18Z" style="fill:#980065;"/><path d="M97.335,91.55c2.804,0.5 2.972,3.108 2.666,4.375c-0.106,0.439 -1.65,0.587 -3.497,0.274c-1.182,-0.2 -1.693,-1.392 -1.577,-2.081c0.216,-1.285 1.323,-2.761 2.408,-2.568Z" style="fill:#ff4e00;"/></g><g id="detail7" serif:id="detail"><path d="M116.763,91.972c0.83,0.35 3.384,2.001 3.236,2.498c-0.062,0.207 -0.238,0.67 -0.307,0.836c-0.524,1.26 -2.485,1.326 -4.515,0.482c-2.031,-0.844 -3.368,-2.281 -2.843,-3.542c0.073,-0.177 0.262,-0.659 0.404,-0.845c0.512,-0.67 3.205,0.226 4.025,0.571Z" style="fill:#6f2084;"/><path d="M116.763,91.972c0.83,0.35 3.43,2.017 3.236,2.498c-0.882,2.185 -5.055,0.556 -4.528,-0.158c0.376,-0.511 -2.211,-1.397 -2.047,-1.612c1.441,-1.889 -0.828,-1.113 -0.686,-1.299c0.512,-0.67 3.205,0.226 4.025,0.571Z" style="fill:#ca00ff;"/><path d="M117.669,89.792c2.63,1.092 2.089,3.614 1.662,4.846c-0.276,0.796 -1.971,0.779 -3.701,0.06c-1.73,-0.72 -2.829,-2.019 -2.568,-2.666c0.488,-1.209 2.06,-3.298 4.607,-2.24Z" style="fill:#980065;"/><path d="M117.669,89.792c2.631,1.091 2.233,3.674 1.662,4.846c-0.198,0.405 -1.738,0.217 -3.475,-0.486c-1.11,-0.449 -1.353,-1.724 -1.091,-2.371c0.488,-1.209 1.887,-2.411 2.904,-1.989Z" style="fill:#ff4e00;"/></g></g><g id="canopy-seal" serif:id="canopy seal"><path d="M87.624,75.138l-1.167,-0.805l-44.897,3.033l-1.761,0.878l0.58,2.498l46.051,-1.279l1.194,-4.325Z" style="fill:#8452fe;"/><path d="M87.739,75.259l-1.282,-0.926l-41.414,3.474l-0.187,0.857l20.28,-1.043l-0.386,2.485l19.292,-0.438l1.281,-3.999l2.416,-0.41Z" style="fill:#a686f3;"/><path d="M87.739,75.259l-1.282,-0.926l-41.414,3.474l-0.187,0.857l20.28,-1.043l20.187,-1.952l2.416,-0.41Z" style="fill:#dfd3fe;"/></g></g></g></g><defs><radialGradient id="_Radial2" cx="0" cy="0" r="1" gradientUnits="userSpaceOnUse" gradientTransform="matrix(23.724,-0.399777,0.477643,28.3448,72.9148,10.0164)"><stop offset="0" style="stop-color:#fff;stop-opacity:1"/><stop offset="0.53" style="stop-color:#80fffb;stop-opacity:0.419608"/><stop offset="1" style="stop-color:#50fff9;stop-opacity:0.2"/></radialGradient></defs></svg>